<svg width="113" height="114" viewBox="0 0 113 114" fill="none" xmlns="http://www.w3.org/2000/svg">
<path d="M56.6871 9.84838C47.4428 9.84838 38.406 12.6115 30.7196 17.7883C23.0332 22.9652 17.0424 30.3232 13.5047 38.932C9.96703 47.5407 9.04141 57.0135 10.8449 66.1526C12.6484 75.2916 17.1 83.6863 23.6367 90.2751C30.1735 96.864 38.5018 101.351 47.5685 103.169C56.6353 104.987 66.0332 104.054 74.5739 100.488C83.1145 96.9221 90.4144 90.8835 95.5503 83.1358C100.686 75.3881 103.427 66.2793 103.427 56.9613C103.427 50.7743 102.218 44.648 99.8695 38.932C97.5206 33.216 94.0778 28.0223 89.7375 23.6474C85.3973 19.2726 80.2447 15.8023 74.5739 13.4346C68.9031 11.067 62.8251 9.84838 56.6871 9.84838ZM70.7092 61.6726H61.3612V71.0952C61.3612 72.3447 60.8687 73.543 59.9922 74.4265C59.1156 75.3101 57.9268 75.8064 56.6871 75.8064C55.4475 75.8064 54.2586 75.3101 53.3821 74.4265C52.5055 73.543 52.0131 72.3447 52.0131 71.0952V61.6726H42.665C41.4254 61.6726 40.2365 61.1762 39.36 60.2927C38.4834 59.4091 37.991 58.2108 37.991 56.9613C37.991 55.7118 38.4834 54.5134 39.36 53.6299C40.2365 52.7464 41.4254 52.25 42.665 52.25H52.0131V42.8274C52.0131 41.5779 52.5055 40.3796 53.3821 39.496C54.2586 38.6125 55.4475 38.1161 56.6871 38.1161C57.9268 38.1161 59.1156 38.6125 59.9922 39.496C60.8687 40.3796 61.3612 41.5779 61.3612 42.8274V52.25H70.7092C71.9488 52.25 73.1377 52.7464 74.0143 53.6299C74.8908 54.5134 75.3832 55.7118 75.3832 56.9613C75.3832 58.2108 74.8908 59.4091 74.0143 60.2927C73.1377 61.1762 71.9488 61.6726 70.7092 61.6726Z" fill="white"/>
</svg>
