<svg width="127" height="126" viewBox="0 0 127 126" fill="none" xmlns="http://www.w3.org/2000/svg">
<path d="M52.9167 11.2683C23.7543 11.2683 0 34.8355 0 63.7683C0 92.701 23.7543 116.268 52.9167 116.268C82.0791 116.268 105.833 92.701 105.833 63.7683C105.833 34.8355 82.0791 11.2683 52.9167 11.2683ZM52.9167 21.7683C76.3594 21.7683 95.25 40.5101 95.25 63.7683C95.25 87.0264 76.3594 105.768 52.9167 105.768C29.4739 105.768 10.5833 87.0264 10.5833 63.7683C10.5833 40.5101 29.4739 21.7683 52.9167 21.7683ZM35.4914 39.0564L28.0086 46.4802L45.4339 63.7683L28.0086 81.0564L35.4914 88.4802L52.9167 71.1921L70.342 88.4802L77.8247 81.0564L60.3994 63.7683L77.8247 46.4802L70.342 39.0564L52.9167 56.3445L35.4914 39.0564Z" fill="white"/>
</svg>
