<svg width="104" height="89" viewBox="0 0 104 89" fill="none" xmlns="http://www.w3.org/2000/svg">
<path d="M91.9822 5.61813C90.8267 2.33625 87.5911 0 83.7778 0H20.2222C16.4089 0 13.2311 2.33625 12.0178 5.61813L0 38.9375V83.4375C0 86.4969 2.6 89 5.77778 89H11.5556C14.7333 89 17.3333 86.4969 17.3333 83.4375V77.875H86.6667V83.4375C86.6667 86.4969 89.2667 89 92.4444 89H98.2222C101.4 89 104 86.4969 104 83.4375V38.9375L91.9822 5.61813ZM22.2444 11.125H81.6978L87.9378 28.4244H16.0044L22.2444 11.125ZM92.4444 66.75H11.5556V38.9375H92.4444V66.75Z" fill="white"/>
</svg>
