<svg width="44" height="43" viewBox="0 0 44 43" fill="none" xmlns="http://www.w3.org/2000/svg">
<path d="M43.1337 1.31603C43.1337 1.30846 43.1362 1.30136 43.1362 1.29378C43.1362 0.578959 42.5078 0.000946785 41.7334 0H41.7324C41.7318 0 41.7318 0 41.7313 0H16.2085H16.2028V0.00520717L0.00154174 14.9308H0V41.1402H0.00154174C0.00154174 41.8536 0.632059 42.4335 1.40646 42.4335H41.7344C42.406 42.4325 42.9662 41.9965 43.1028 41.4157H43.1337V41.162C43.1337 41.1549 43.1357 41.1482 43.1357 41.1411C43.1357 41.134 43.1337 41.1274 43.1337 41.1203V1.31603ZM30.6323 4.71357H38.0171V16.3576L28.7094 7.78257L30.6323 4.71357ZM16.2085 16.2241C16.9813 16.2213 17.6072 15.6433 17.6072 14.9313V4.71357H27.6729L13.7111 26.9914L5.1166 19.0739V16.2241H16.2085ZM5.1166 37.7204V22.4132L12.3842 29.1084L6.98759 37.7204H5.1166ZM9.94697 37.7204L27.3826 9.89959L38.0176 19.6969V37.7204H9.94697Z" fill="black"/>
<path d="M27.7501 19.1227C24.3354 19.1227 21.5703 21.6728 21.5703 24.8162C21.5703 26.0749 22.0189 27.2347 22.7697 28.1773L26.7568 34.5392C26.7809 34.5837 26.8066 34.6272 26.8375 34.6675L26.8457 34.6803L26.8477 34.6793C27.0502 34.9368 27.376 35.1049 27.7542 35.1049C28.0954 35.1049 28.393 34.9619 28.5975 34.7418L28.6078 34.747L28.6463 34.6859C28.7049 34.6135 28.7563 34.5359 28.7938 34.4507L32.7033 28.2123C33.471 27.2636 33.9314 26.0905 33.9314 24.8157C33.9299 21.6728 31.1648 19.1227 27.7501 19.1227ZM27.689 27.7024C26.0065 27.7024 24.6438 26.4475 24.6438 24.8976C24.6438 23.3477 26.0065 22.0913 27.689 22.0913C29.3714 22.0913 30.7341 23.3477 30.7341 24.8976C30.7341 26.4475 29.3714 27.7024 27.689 27.7024Z" fill="black"/>
</svg>
