<svg width="77" height="88" viewBox="0 0 77 88" fill="none" xmlns="http://www.w3.org/2000/svg">
<path d="M38.4822 39.2274C42.7329 39.2274 46.8882 38.0894 50.4226 35.9575C53.9569 33.8255 56.7117 30.7953 58.3383 27.25C59.965 23.7047 60.3907 19.8035 59.5614 16.0398C58.7321 12.2762 56.6852 8.81899 53.6794 6.10553C50.6737 3.39207 46.8442 1.54418 42.6751 0.795533C38.506 0.0468902 34.1846 0.431121 30.2575 1.89964C26.3303 3.36815 22.9737 5.855 20.6121 9.04569C18.2505 12.2364 16.99 15.9876 16.99 19.825C16.99 24.9709 19.2543 29.9059 23.2849 33.5446C27.3155 37.1832 32.7821 39.2274 38.4822 39.2274Z" fill="white"/>
<path d="M70.7204 87.7332C72.1454 87.7332 73.5121 87.2221 74.5197 86.3125C75.5274 85.4028 76.0935 84.169 76.0935 82.8826C76.0935 73.8774 72.1309 65.2411 65.0774 58.8734C58.0239 52.5058 48.4573 48.9285 38.4822 48.9285C28.507 48.9285 18.9404 52.5058 11.8869 58.8734C4.83346 65.2411 0.87085 73.8774 0.87085 82.8826C0.87085 84.169 1.43694 85.4028 2.44458 86.3125C3.45222 87.2221 4.81887 87.7332 6.24389 87.7332H70.7204Z" fill="white"/>
</svg>
