<svg width="121" height="109" viewBox="0 0 121 109" fill="none" xmlns="http://www.w3.org/2000/svg">
<path d="M60.5134 9.07742C50.6938 9.07742 41.0948 11.7204 32.9301 16.6722C24.7654 21.6239 18.4018 28.662 14.644 36.8965C10.8863 45.1309 9.90305 54.1919 11.8188 62.9336C13.7345 71.6752 18.463 79.705 25.4065 86.0073C32.35 92.3097 41.1966 96.6017 50.8274 98.3405C60.4583 100.079 70.441 99.1869 79.5131 95.7761C88.5852 92.3653 96.3393 86.5892 101.795 79.1784C107.25 71.7676 110.162 63.0548 110.162 54.1419C110.162 48.224 108.878 42.364 106.383 36.8965C103.888 31.429 100.231 26.4611 95.6203 22.2765C91.01 18.0919 85.5368 14.7725 79.5131 12.5077C73.4895 10.243 67.0334 9.07742 60.5134 9.07742ZM80.3729 58.6484H60.5134C59.1967 58.6484 57.9338 58.1736 57.0027 57.3285C56.0716 56.4833 55.5486 55.3371 55.5486 54.1419V36.1161C55.5486 34.9209 56.0716 33.7747 57.0027 32.9296C57.9338 32.0845 59.1967 31.6097 60.5134 31.6097C61.8302 31.6097 63.093 32.0845 64.0241 32.9296C64.9552 33.7747 65.4783 34.9209 65.4783 36.1161V49.6355H80.3729C81.6896 49.6355 82.9525 50.1103 83.8836 50.9554C84.8147 51.8005 85.3377 52.9467 85.3377 54.1419C85.3377 55.3371 84.8147 56.4833 83.8836 57.3285C82.9525 58.1736 81.6896 58.6484 80.3729 58.6484Z" fill="white"/>
</svg>
